<?xml version="1.0" encoding="utf-8"?>
<!-- Generator: Adobe Illustrator 23.1.1, SVG Export Plug-In . SVG Version: 6.00 Build 0)  -->
<svg version="1.1" id="Layer_1" xmlns="http://www.w3.org/2000/svg" xmlns:xlink="http://www.w3.org/1999/xlink" x="0px" y="0px"
	 viewBox="0 0 430 430" style="enable-background:new 0 0 430 430;" xml:space="preserve">
<style type="text/css">
	.st0{opacity:0.2;fill:#FFFFFF;enable-background:new    ;}
	.st1{fill:#060909;}
	.st2{fill:#EDB60A;}
	.st3{fill:url(#inside_1_);}
	.st4{fill:#FFFFFF;}
	.st5{fill:url(#SVGID_1_);}
	.st6{fill:#E32421;}
	.blur{opacity:0.3;}
</style>
<title>calaba-logo-primary</title>
<defs>
    <filter id="blur">
        <feGaussianBlur stdDeviation="8" />
    </filter>
</defs>
<g id="circle">
	<circle id="outside" class="st0" cx="213.7" cy="214.7" r="212.8"/>
	<circle id="outside-2" class="st1" cx="213.7" cy="214.7" r="200"/>
	<circle id="orange" class="st2" cx="213.7" cy="214.7" r="149"/>
	
		<radialGradient id="inside_1_" cx="213.7438" cy="217.2988" r="145.9679" gradientTransform="matrix(1 0 0 -1 -4.835011e-05 431.9999)" gradientUnits="userSpaceOnUse">
		<stop  offset="0" style="stop-color:#FFFFFF"/>
		<stop  offset="1" style="stop-color:#DFF0F0"/>
	</radialGradient>
	<circle id="inside" class="st3" cx="213.7" cy="214.7" r="146"/>
</g>
<g>
	<path class="st4" d="M58.8,112.6c-3.4,2.2-5.5,6-5.6,10.1c0,2.1,0.5,4.2,1.6,6.1c2.2,3.8,6.3,6.2,10.7,6.3c2.1,0.1,4.2-0.5,6.1-1.5
		c1.9-1.1,3.5-2.6,4.6-4.5c0.9-1.6,1.5-3.3,1.7-5.1c0.2-1.9,0.1-3.8-0.3-5.6l6-1.2c0.7,2.6,0.9,5.4,0.6,8.1
		c-0.3,2.6-1.1,5.2-2.5,7.5c-1.7,2.9-4.1,5.3-7.1,7c-2.8,1.6-6.1,2.5-9.3,2.4c-3.3,0-6.6-1-9.4-2.7c-2.9-1.7-5.2-4.1-6.8-7
		c-1.6-2.9-2.3-6.1-2.2-9.4c0.2-6.1,3.2-11.8,8.1-15.4c2.1-1.6,4.4-2.7,7-3.3l2.3,6.1C62.2,110.8,60.4,111.5,58.8,112.6z"/>
	<path class="st4" d="M114.7,93.5l-7.6-3.3l-12.9,12.3l3,7.8l-5.2,5L78.3,77.8l5.2-5l36.5,15.5L114.7,93.5z M91.8,96.4l9.3-8.8
		l-15.1-6.7L91.8,96.4z"/>
	<path class="st4" d="M110.8,51.8l6.1-3.4l14.7,26.3l13.7-7.7l3.1,5.5l-19.8,11.1L110.8,51.8z"/>
	<path class="st4" d="M147.2,34.3l6.6-2.3l11.9,34.4l-6.6,2.3L147.2,34.3z"/>
	<path class="st4" d="M174.4,26.3l24.8-3.7l0.8,6l-17.9,2.6l1.4,9.7l16.3-2.4l0.9,6l-16.3,2.4l2.1,14.2l-6.9,1L174.4,26.3z"/>
	<path class="st4" d="M245.2,27.2c8.3,6.1,10.1,17.7,4.1,26c-0.1,0.1-0.1,0.2-0.2,0.3c-2,2.6-4.7,4.7-7.8,5.9
		c-6.5,2.6-13.9,1.7-19.6-2.4c-2.7-1.9-4.8-4.6-6.1-7.6c-4.1-9.3,0-20.2,9.3-24.3c0.2-0.1,0.5-0.2,0.7-0.3
		C232.1,22.4,239.5,23.3,245.2,27.2z M228.7,30.7c-6.3,2.7-9.2,10-6.5,16.4c0.9,2,2.2,3.7,3.9,5c1.7,1.3,3.8,2.1,5.9,2.4
		c2.1,0.3,4.3,0,6.2-0.9c2-0.9,3.7-2.2,5-4c1.3-1.8,2.1-3.9,2.4-6c0.3-2.2,0-4.4-0.9-6.4c-0.8-2-2.2-3.7-3.9-5
		c-1.7-1.3-3.7-2.1-5.8-2.4C232.9,29.6,230.7,29.9,228.7,30.7L228.7,30.7z"/>
	<path class="st4" d="M281.9,75.3l-1.5-12.4c-0.4-0.1-0.8-0.3-1.2-0.5l-7.5-3.3l-4.3,9.8l-6.4-2.8l14.5-33.4l13.9,6.1
		c4.3,1.9,7.2,4.3,8.7,7.4c1.5,3,1.4,6.4-0.2,10c-0.9,2.4-2.5,4.4-4.6,5.9c-2,1.4-4.3,2.1-6.7,2l2.5,14.3L281.9,75.3z M274.2,53.5
		l7.5,3.3c1.9,1,4.1,1.3,6.2,0.8c1.8-0.6,3.3-2,3.9-3.8c0.9-1.7,0.9-3.7,0.1-5.4c-1.1-1.8-2.8-3.2-4.9-3.9l-7.5-3.3L274.2,53.5z"/>
	<path class="st4" d="M342.1,73l5.2,4.3l-23.3,28l-5.1-4.2l1.7-31.2l-16,19.3l-5.2-4.4l23.3-28l5.1,4.2L326,92.3L342.1,73z"/>
	<path class="st4" d="M361.8,94.4l4.2,5.5l-28.9,22.2l-4.2-5.5L361.8,94.4z"/>
	<path class="st4" d="M357.4,158.1l5.6-6.2l-7.6-16.1l-8.3,0.4l-3.1-6.5l39.7-1.2l3.1,6.5l-26.1,29.8L357.4,158.1z M361.8,135.6
		l5.5,11.6l11.1-12.3L361.8,135.6z"/>
</g>
<g>
	<path class="st4" d="M54.6,299.8l2.3-2.6l-3.2-6.6l-3.4,0.2l-1.3-2.7l16.3-0.6l1.3,2.7L56,302.5L54.6,299.8z M56.4,290.5l2.3,4.7
		l4.5-5.1L56.4,290.5z"/>
	<path class="st4" d="M68.8,306.2c-0.1-0.5-0.3-1.1-0.6-1.5c-0.2-0.3-0.5-0.6-0.8-0.8c-0.3-0.2-0.6-0.1-0.9,0
		c-0.3,0.2-0.5,0.5-0.4,0.9c0,0.6,0.2,1.2,0.3,1.7c0.2,0.7,0.3,1.4,0.4,2.1c0.1,0.6,0,1.1-0.2,1.7c-0.2,0.6-0.7,1.1-1.3,1.4
		c-0.9,0.6-1.9,0.6-2.9,0.2c-1-0.5-1.9-1.3-2.4-2.3c-0.5-0.8-0.8-1.6-1-2.4c-0.2-0.8-0.2-1.6-0.1-2.4l2.2-0.2
		c-0.1,0.7-0.1,1.4,0.1,2.1c0.1,0.7,0.4,1.3,0.7,1.9c0.2,0.4,0.5,0.7,0.9,0.9c0.3,0.2,0.6,0.2,0.9,0c0.3-0.2,0.5-0.5,0.5-0.9
		c0-0.6-0.2-1.2-0.3-1.8c-0.2-0.6-0.3-1.3-0.4-2c-0.1-0.5,0-1.1,0.2-1.6c0.2-0.6,0.7-1.1,1.2-1.4c0.8-0.6,1.9-0.7,2.8-0.3
		c1,0.5,1.8,1.2,2.3,2.2c0.4,0.6,0.7,1.3,0.9,2.1c0.2,0.7,0.3,1.4,0.2,2.1l-2.2,0.2C69,307.5,68.9,306.8,68.8,306.2z"/>
	<path class="st4" d="M75.6,316.6c-0.2-0.5-0.4-1-0.7-1.5c-0.2-0.3-0.5-0.6-0.8-0.8c-0.3-0.1-0.6-0.1-0.9,0.1
		c-0.3,0.2-0.4,0.6-0.4,0.9c0.1,0.6,0.2,1.2,0.5,1.7c0.2,0.7,0.4,1.3,0.5,2c0.1,0.6,0.1,1.1-0.1,1.7c-0.2,0.6-0.6,1.2-1.2,1.5
		c-0.8,0.6-1.9,0.8-2.8,0.4c-1.1-0.4-2-1.2-2.6-2.1c-0.5-0.7-0.9-1.5-1.1-2.4c-0.2-0.8-0.3-1.6-0.3-2.4l2.1-0.3
		c-0.1,0.7,0,1.4,0.2,2.1c0.2,0.7,0.5,1.3,0.9,1.9c0.2,0.4,0.5,0.7,0.9,0.9c0.3,0.2,0.7,0.1,0.9-0.1c0.3-0.2,0.5-0.6,0.4-1
		c-0.1-0.6-0.2-1.2-0.5-1.8c-0.2-0.6-0.4-1.3-0.5-1.9c-0.1-0.5-0.1-1.1,0.1-1.6c0.2-0.6,0.6-1.1,1.1-1.5c0.8-0.6,1.9-0.8,2.8-0.5
		c1,0.4,1.9,1.1,2.5,2c0.4,0.6,0.8,1.3,1,2c0.2,0.7,0.4,1.4,0.4,2.1l-2.2,0.3C76,317.8,75.8,317.2,75.6,316.6z"/>
	<path class="st4" d="M86.5,327.7c0.2,1,0.1,2-0.2,2.9c-0.4,1-1,1.9-1.8,2.5c-0.8,0.7-1.8,1.2-2.8,1.4c-1,0.2-2,0.1-2.9-0.3
		c-1-0.4-1.9-1.1-2.6-1.9c-0.7-0.8-1.2-1.8-1.5-2.9c-0.2-1-0.1-2,0.2-2.9c0.4-1,1-1.9,1.9-2.5c0.8-0.7,1.8-1.2,2.8-1.4
		c1-0.2,2-0.1,2.9,0.3c1,0.4,1.9,1.1,2.6,2C85.8,325.6,86.3,326.6,86.5,327.7z M81,325.1c-1.9,0-3.5,1.4-3.8,3.2
		c-0.1,0.9,0.2,1.8,0.8,2.4c0.5,0.7,1.3,1.1,2.2,1.2c1.9,0,3.5-1.4,3.8-3.2c0.1-0.9-0.2-1.7-0.7-2.4C82.7,325.6,81.9,325.2,81,325.1
		L81,325.1z"/>
	<path class="st4" d="M93.6,337.7c-0.6-0.6-1.4-1-2.3-0.9c-0.9,0.1-1.7,0.4-2.3,1.1c-0.7,0.6-1.1,1.5-1.1,2.4c0,0.9,0.3,1.7,0.9,2.3
		c0.8,0.9,1.9,1.4,3.1,1.2l0.2,2.2c-0.9,0.2-1.8,0.1-2.6-0.2c-0.9-0.4-1.8-0.9-2.5-1.7c-0.8-0.7-1.3-1.6-1.6-2.6
		c-0.3-0.9-0.3-1.9,0-2.9c0.7-2,2.3-3.6,4.3-4.3c0.9-0.3,2-0.3,2.9,0c1,0.3,1.9,0.9,2.6,1.6c0.7,0.7,1.2,1.5,1.6,2.4
		c0.3,0.8,0.4,1.7,0.3,2.5l-2.3-0.1C94.9,339.6,94.4,338.5,93.6,337.7z"/>
	<path class="st4" d="M101.9,342.4l2.1,1.8l-7.5,8.6l-2.1-1.8L101.9,342.4z M106.7,340.7c0,0.4-0.1,0.9-0.5,1.2
		c-0.3,0.3-0.7,0.5-1.1,0.6c-0.9,0.1-1.6-0.6-1.7-1.5c0,0,0,0,0,0c0-0.4,0.1-0.9,0.4-1.2c0.3-0.3,0.7-0.6,1.1-0.6
		C105.9,339.1,106.7,339.8,106.7,340.7C106.7,340.7,106.7,340.7,106.7,340.7L106.7,340.7z"/>
	<path class="st4" d="M106.5,360.9l0.8-1.1c-0.6,0.2-1.3,0.1-1.9,0c-0.7-0.2-1.4-0.5-1.9-1c-0.6-0.4-1.1-1-1.4-1.6
		c-0.3-0.6-0.4-1.2-0.3-1.9c0.1-0.6,0.3-1.2,0.7-1.7c0.6-0.8,1.5-1.3,2.4-1.3c1.1,0,2.2,0.5,3.1,1.2l2.6,2l0.2-0.2
		c0.4-0.5,0.5-1.1,0.4-1.6c-0.2-0.7-0.6-1.2-1.2-1.6c-1-0.7-2.1-1.1-3.3-1.2l0.4-2.1c0.9,0.1,1.8,0.3,2.6,0.6
		c0.8,0.3,1.6,0.8,2.2,1.3c1,0.7,1.8,1.7,2.1,2.9c0.2,1.1-0.1,2.3-0.8,3.1l-4.5,6L106.5,360.9z M107.3,358.3
		c0.6,0.1,1.2-0.1,1.6-0.5l0.6-0.8l-2.3-1.8c-0.4-0.4-0.9-0.6-1.5-0.7c-0.4,0-0.8,0.2-1.1,0.5c-0.3,0.3-0.4,0.8-0.3,1.2
		c0.2,0.5,0.5,0.9,0.9,1.2C105.9,357.9,106.6,358.2,107.3,358.3L107.3,358.3z"/>
	<path class="st4" d="M119.6,369c-1,0-2-0.3-2.9-0.9c-0.8-0.5-1.3-1.2-1.6-2c-0.2-0.9,0-1.9,0.6-2.7l3.1-4.7l-1.3-0.9l1.1-1.7
		l1.4,0.9l1.7-2.6l2.3,1.5l-1.7,2.6l2.7,1.8l-1.1,1.7l-2.7-1.8l-2.8,4.3c-0.2,0.3-0.4,0.7-0.4,1.1c0.1,0.3,0.3,0.6,0.6,0.8
		c0.5,0.3,1,0.4,1.6,0.5L119.6,369z"/>
	<path class="st4" d="M129.1,362.1l2.4,1.4l-5.7,9.9l-2.4-1.4L129.1,362.1z M133.4,359.5c0.1,0.4,0,0.9-0.2,1.3
		c-0.2,0.4-0.6,0.7-1,0.8c-0.9,0.2-1.7-0.3-2-1.1c0,0,0,0,0,0c-0.1-0.4,0-0.9,0.2-1.2c0.2-0.4,0.6-0.7,1-0.8
		C132.3,358.1,133.2,358.6,133.4,359.5C133.4,359.5,133.4,359.5,133.4,359.5L133.4,359.5z"/>
	<path class="st4" d="M143.3,370.2c0.6,0.8,0.9,1.8,1,2.8c0.1,1.1-0.2,2.1-0.6,3.1c-0.4,1-1.1,1.8-2,2.4c-0.8,0.6-1.8,0.9-2.8,0.9
		c-1.1,0-2.2-0.2-3.1-0.7c-1-0.5-1.9-1.2-2.5-2c-0.6-0.8-1-1.8-1-2.8c-0.1-1.1,0.2-2.1,0.6-3.1c0.4-1,1.1-1.8,2-2.4
		c0.8-0.6,1.8-0.9,2.8-0.9c1.1,0,2.2,0.2,3.2,0.7C141.7,368.7,142.6,369.4,143.3,370.2z M137.2,370.2c-1.7,0.8-2.6,2.7-2.2,4.5
		c0.3,0.8,0.9,1.5,1.7,1.9c0.8,0.4,1.7,0.5,2.5,0.1c1.7-0.8,2.6-2.7,2.2-4.5c-0.3-0.8-0.9-1.5-1.7-1.9
		C138.9,369.9,138,369.9,137.2,370.2z"/>
	<path class="st4" d="M159.1,377c0.4,1.1,0.4,2.3,0,3.4l-2.5,6.7l-2.6-1l2.2-5.9c0.3-0.6,0.3-1.4,0-2c-0.3-0.6-0.8-1.1-1.5-1.3
		c-0.8-0.3-1.6-0.3-2.4,0.1c-0.7,0.4-1.3,1.1-1.6,1.9l-1.9,5.3l-2.6-1l4-10.7l2.6,1l-0.7,2c1.3-1.1,3.1-1.4,4.6-0.7
		C157.7,375.2,158.6,376,159.1,377z"/>
	<path class="st4" d="M176.4,378.8c-0.4,0.2-0.6,0.6-0.7,1l-0.3,1.1l2.8,0.7l-0.5,2l-2.8-0.7l-2,8.7l-2.7-0.6l2-8.7l-1.5-0.3l0.5-2
		l1.5,0.3l0.2-1.1c0.1-0.7,0.5-1.4,1-2c0.5-0.5,1.1-0.8,1.8-1c0.7-0.1,1.4-0.1,2.1,0c0.7,0.2,1.4,0.5,1.9,1l-1,2.1
		c-0.4-0.3-0.8-0.5-1.3-0.7C177.2,378.6,176.8,378.7,176.4,378.8z"/>
	<path class="st4" d="M189.7,383.7c0.8,0.6,1.4,1.4,1.8,2.3c0.4,1,0.5,2.1,0.3,3.1c-0.1,1.1-0.6,2.1-1.2,2.9
		c-0.6,0.8-1.5,1.4-2.4,1.7c-1,0.3-2.1,0.4-3.2,0.2c-1.1-0.1-2.1-0.6-3-1.2c-0.8-0.6-1.4-1.4-1.8-2.4c-0.4-1-0.5-2.1-0.3-3.1
		c0.1-1,0.6-2,1.2-2.9c0.6-0.8,1.5-1.4,2.4-1.7c1-0.3,2.2-0.4,3.2-0.2C187.8,382.7,188.8,383.1,189.7,383.7z M183.9,385.5
		c-1.4,1.2-1.7,3.3-0.8,4.9c0.5,0.7,1.3,1.2,2.2,1.3c0.9,0.2,1.7-0.1,2.4-0.6c1.4-1.2,1.7-3.3,0.8-4.9c-0.5-0.7-1.3-1.2-2.1-1.3
		C185.5,384.7,184.6,384.9,183.9,385.5L183.9,385.5z"/>
	<path class="st4" d="M201.3,384.8c0.7-0.3,1.5-0.5,2.4-0.4l-0.2,2.7c-1-0.2-2,0-2.9,0.6c-0.8,0.6-1.2,1.5-1.2,2.4l-0.4,5.5
		l-2.8-0.2l0.9-11.4l2.8,0.2l-0.2,2.2C200,385.6,200.6,385.1,201.3,384.8z"/>
	<path class="st4" d="M225.2,381.7c0.9,0.6,1.5,1.6,1.5,2.7c0.1,1.6-0.9,3-2.4,3.4c0.9,0.1,1.8,0.5,2.4,1.2c0.6,0.7,0.9,1.5,1,2.5
		c0.1,1.2-0.4,2.3-1.3,3.1c-1.2,0.8-2.6,1.3-4,1.3l-6.8,0.3l-0.7-14.9l6.6-0.3C222.7,380.7,224,381,225.2,381.7z M223.2,386.4
		c0.4-0.3,0.6-0.9,0.6-1.4c0-0.5-0.3-1-0.7-1.3c-0.5-0.3-1.1-0.4-1.8-0.4l-3.6,0.2l0.2,3.6l3.6-0.2
		C222.1,387,222.7,386.8,223.2,386.4L223.2,386.4z M223.9,392.7c0.5-0.4,0.7-0.9,0.7-1.5c0-0.6-0.3-1.1-0.8-1.4
		c-0.7-0.4-1.4-0.5-2.2-0.4l-3.6,0.2l0.2,3.9l3.6-0.2C222.5,393.4,223.3,393.1,223.9,392.7L223.9,392.7z"/>
	<path class="st4" d="M240.8,383.8c1.2,1.1,1.9,2.6,2,4.1c0.1,0.4,0.1,0.6,0.1,0.8l-8.4,1.2c0.5,1.5,2,2.4,3.6,2.1
		c0.6-0.1,1.1-0.3,1.6-0.6c0.5-0.3,0.9-0.7,1.3-1.1l1.7,1.3c-0.5,0.7-1.1,1.3-1.9,1.7c-0.8,0.5-1.7,0.8-2.6,0.9
		c-1.1,0.2-2.1,0.1-3.2-0.3c-0.9-0.3-1.7-0.9-2.3-1.7c-1.2-1.7-1.5-4-0.8-6c0.3-0.9,1-1.7,1.7-2.3c0.8-0.6,1.8-1,2.9-1.2
		C238,382.5,239.6,382.9,240.8,383.8z M240.1,387.3c-0.1-0.7-0.5-1.4-1.1-1.9c-1.3-0.8-3-0.6-4.1,0.6c-0.5,0.6-0.7,1.4-0.7,2.1
		L240.1,387.3z"/>
	<path class="st4" d="M256.3,380c1,0.7,1.6,1.7,1.9,2.9l1.7,6.9l-2.7,0.7l-1.5-6.1c-0.1-0.7-0.5-1.3-1.1-1.7c-0.6-0.4-1.3-0.4-2-0.2
		c-0.8,0.2-1.5,0.7-1.9,1.4c-0.4,0.8-0.5,1.6-0.2,2.5l1.3,5.5l-2.7,0.6l-3.7-15.4l2.7-0.6l1.5,6.4c0.4-1.7,1.8-2.9,3.5-3.2
		C254.1,379.3,255.3,379.4,256.3,380z"/>
	<path class="st4" d="M272,385.9l-0.4-1.3c-0.2,0.6-0.6,1.1-1.1,1.6c-0.6,0.5-1.2,0.8-1.9,1.1c-0.7,0.2-1.4,0.3-2.1,0.2
		c-0.6-0.1-1.2-0.3-1.7-0.8c-0.5-0.4-0.9-1-1.1-1.6c-0.4-0.9-0.3-1.9,0.3-2.7c0.7-0.9,1.6-1.6,2.7-1.9l3.2-1.1l-0.1-0.3
		c-0.2-0.6-0.6-1-1.1-1.3c-0.7-0.2-1.4-0.2-2,0.1c-1.1,0.4-2.1,1.2-2.9,2.1l-1.6-1.5c0.6-0.7,1.2-1.3,2-1.8c0.7-0.5,1.5-0.9,2.3-1.1
		c1.2-0.5,2.4-0.5,3.6-0.1c1,0.4,1.8,1.3,2.1,2.4l2.4,7.1L272,385.9z M270.2,383.8c0.4-0.4,0.6-1,0.5-1.6l-0.3-1l-2.7,0.9
		c-0.5,0.1-1,0.4-1.4,0.8c-0.3,0.3-0.3,0.8-0.1,1.2c0.1,0.4,0.5,0.8,0.9,0.9c0.5,0.2,1.1,0.1,1.5-0.1
		C269.2,384.8,269.8,384.3,270.2,383.8L270.2,383.8z"/>
	<path class="st4" d="M273.8,373.2l2.7-1.2l6.2,6.8l-0.8-9.1l2.6-1.1l0.6,12.2l-2.6,1.1L273.8,373.2z"/>
	<path class="st4" d="M287.8,361.7c0.4,0.1,0.8,0.5,0.9,0.9c0.2,0.4,0.3,0.8,0.1,1.2c-0.3,0.8-1.2,1.3-2,1c0,0,0,0,0,0
		c-0.4-0.1-0.7-0.4-0.9-0.8c-0.2-0.4-0.3-0.8-0.1-1.3C286,361.9,286.9,361.4,287.8,361.7C287.8,361.7,287.8,361.7,287.8,361.7
		L287.8,361.7z M287.6,366.8l2.5-1.3l5.2,10.2l-2.5,1.3L287.6,366.8z"/>
	<path class="st4" d="M302.1,359.3c1-0.1,2,0.2,2.9,0.6c0.9,0.5,1.7,1.3,2.2,2.2c0.6,0.9,0.9,1.9,0.9,3c0,1-0.2,2-0.7,2.9
		c-0.6,0.9-1.4,1.7-2.3,2.2c-0.9,0.6-2,0.9-3.1,1c-1,0.1-2-0.2-2.9-0.6c-0.9-0.5-1.7-1.3-2.2-2.2c-0.6-0.9-0.9-1.9-0.9-3
		c0-1,0.2-2,0.8-2.8c0.6-0.9,1.4-1.7,2.3-2.3C299.9,359.7,301,359.4,302.1,359.3z M298.8,364.4c-0.3,1.9,0.8,3.7,2.6,4.3
		c0.9,0.2,1.8,0.1,2.5-0.4c0.8-0.4,1.3-1.2,1.5-2c0.3-1.9-0.8-3.7-2.6-4.3c-0.8-0.2-1.7-0.1-2.5,0.4
		C299.5,362.8,298.9,363.5,298.8,364.4z"/>
	<path class="st4" d="M311.6,352.6c0.3-0.7,0.9-1.4,1.5-1.9l1.6,2.2c-0.9,0.5-1.5,1.3-1.8,2.3c-0.2,0.9,0,1.9,0.6,2.7l3.2,4.5
		l-2.2,1.6l-6.7-9.3l2.3-1.6l1.3,1.8C311.2,354.1,311.3,353.3,311.6,352.6z"/>
	<path class="st4" d="M337.8,344.5l-3.1-1.4l-5.3,5l1.2,3.2l-2.2,2l-5.5-15.4l2.2-2l15,6.5L337.8,344.5z M328.4,345.6l3.8-3.6
		l-6.2-2.8L328.4,345.6z"/>
	<path class="st4" d="M342,324.6c1.2,0,2.3,0.4,3.2,1.3l5.4,4.7l-1.8,2.1l-4.8-4.1c-0.5-0.5-1.2-0.7-1.9-0.7
		c-0.7,0.1-1.3,0.4-1.7,0.9c-0.6,0.6-0.8,1.4-0.7,2.3c0.1,0.8,0.6,1.6,1.2,2.1l4.2,3.7l-1.8,2.1l-8.6-7.5l1.8-2.1l1.6,1.4
		c-0.6-1.6-0.2-3.4,1-4.6C339.8,325.2,340.8,324.6,342,324.6z"/>
	<path class="st4" d="M358.2,320.2l-1.1-0.8c0.2,0.6,0.2,1.3,0,1.9c-0.2,0.7-0.5,1.4-0.9,2c-0.4,0.6-1,1.1-1.6,1.4
		c-0.6,0.3-1.2,0.4-1.8,0.4c-0.6-0.1-1.2-0.3-1.8-0.7c-0.8-0.5-1.3-1.4-1.4-2.4c0-1.1,0.4-2.3,1.1-3.1l1.9-2.7l-0.2-0.2
		c-0.5-0.4-1.1-0.5-1.7-0.4c-0.7,0.2-1.2,0.7-1.6,1.2c-0.7,1-1.1,2.2-1.1,3.4l-2.1-0.3c0.1-0.9,0.3-1.8,0.6-2.6
		c0.3-0.8,0.7-1.6,1.2-2.3c0.7-1.1,1.7-1.8,2.9-2.2c1.1-0.2,2.3,0,3.2,0.7l6.1,4.3L358.2,320.2z M355.6,319.5
		c0.1-0.6-0.2-1.2-0.6-1.6l-0.8-0.6l-1.7,2.3c-0.4,0.4-0.6,1-0.7,1.5c0,0.4,0.2,0.8,0.6,1.1c0.4,0.3,0.8,0.4,1.3,0.2
		c0.5-0.2,0.9-0.5,1.2-1C355.3,320.9,355.5,320.2,355.6,319.5L355.6,319.5z"/>
	<path class="st4" d="M349.6,304.6l1.5-2.4l13.5,8.3l-1.5,2.4L349.6,304.6z"/>
	<path class="st4" d="M372.4,303.8c0.1,0.8-0.1,1.7-0.5,2.4c-0.2,0.5-0.5,0.9-0.9,1.2c-0.4,0.3-0.8,0.6-1.3,0.8l-1.3-2
		c0.3-0.1,0.5-0.3,0.7-0.5c0.2-0.2,0.3-0.4,0.5-0.6c0.4-0.7,0.3-1.5-0.2-2l-0.5-0.7l-12.1-1.1l1.4-2.5l8.9,1l-6-6.5l1.3-2.5l9,10.6
		C371.9,302.1,372.3,302.9,372.4,303.8z"/>
	<path class="st4" d="M367.9,284.1c-0.4,0.4-0.7,0.9-0.9,1.4c-0.2,0.3-0.2,0.7-0.2,1.1c0,0.3,0.2,0.6,0.5,0.7c0.3,0.1,0.7,0.1,1-0.2
		c0.4-0.4,0.9-0.8,1.2-1.3c0.4-0.5,0.9-1,1.4-1.5c0.4-0.4,0.9-0.7,1.5-0.8c0.6-0.2,1.3-0.1,1.9,0.2c1,0.4,1.6,1.2,1.8,2.2
		c0.2,1.1,0,2.3-0.5,3.3c-0.3,0.8-0.8,1.5-1.4,2.2c-0.5,0.6-1.2,1.1-1.9,1.5l-1.4-1.7c0.6-0.3,1.2-0.7,1.7-1.3
		c0.5-0.5,0.9-1.1,1.2-1.7c0.2-0.4,0.3-0.8,0.2-1.2c0-0.3-0.2-0.6-0.6-0.7c-0.3-0.2-0.7-0.1-1,0.1c-0.5,0.4-0.9,0.8-1.3,1.3
		c-0.4,0.5-0.9,1-1.4,1.5c-0.4,0.4-0.9,0.6-1.4,0.8c-0.6,0.1-1.3,0.1-1.8-0.2c-0.9-0.4-1.7-1.2-1.9-2.2c-0.2-1.1-0.1-2.2,0.4-3.2
		c0.3-0.7,0.7-1.3,1.2-1.9c0.5-0.6,1-1,1.6-1.4l1.4,1.7C368.8,283.2,368.3,283.6,367.9,284.1z"/>
	<path class="st4" d="M365.1,272.6c0.4-0.2,0.9-0.2,1.3,0c0.4,0.1,0.8,0.4,1,0.8c0.4,0.8,0,1.8-0.8,2.1c0,0,0,0,0,0
		c-0.4,0.2-0.9,0.2-1.3,0c-0.4-0.1-0.8-0.4-1-0.8C363.9,273.9,364.3,272.9,365.1,272.6C365.1,272.6,365.1,272.6,365.1,272.6
		L365.1,272.6z M368.4,276.4l0.9-2.6l10.7,3.9l-0.9,2.6L368.4,276.4z"/>
	<path class="st4" d="M374.8,264.5c-0.3,0.5-0.6,1-0.7,1.5c-0.1,0.4-0.2,0.8-0.1,1.1c0.1,0.3,0.3,0.5,0.6,0.6c0.3,0.1,0.7,0,0.9-0.3
		c0.4-0.4,0.8-0.9,1.1-1.4c0.4-0.6,0.8-1.1,1.2-1.7c0.4-0.4,0.9-0.8,1.4-1c0.6-0.2,1.3-0.2,1.9,0c1,0.2,1.8,1,2.1,2
		c0.3,1.1,0.3,2.3,0,3.3c-0.2,0.8-0.6,1.6-1.1,2.4c-0.5,0.7-1.1,1.3-1.7,1.7l-1.6-1.5c0.6-0.4,1.1-0.9,1.5-1.5
		c0.4-0.6,0.7-1.2,0.9-1.8c0.1-0.4,0.2-0.8,0.1-1.3c-0.1-0.3-0.3-0.6-0.6-0.7c-0.4-0.1-0.8,0-1,0.3c-0.4,0.5-0.8,0.9-1.1,1.5
		c-0.4,0.6-0.7,1.1-1.2,1.6c-0.4,0.4-0.8,0.7-1.3,0.9c-0.6,0.2-1.2,0.2-1.8,0c-1-0.2-1.8-0.9-2.1-1.9c-0.3-1-0.3-2.2,0-3.2
		c0.2-0.7,0.5-1.4,0.9-2.1c0.4-0.6,0.9-1.2,1.4-1.6l1.6,1.5C375.5,263.5,375.1,264,374.8,264.5z"/>
</g>
<polyline points="128.9,120.3 128.6,117.4 128.8,117 127.8,114.1 127.6,112.7 126.2,111.2 126.7,109.6 127,106.3 127.7,106.3 
	166.7,107.6 199.4,108 199.4,162.5 199.3,178.6 271,243.1 301.5,270.8 301.5,272.3 301.9,273.9 304.3,276.5 305.4,278.4 
	305.9,279.7 306.8,281.2 307.1,282.9 310.6,285.1 311.9,286.3 311,288 306.7,291.9 306.3,293.4 305.1,294.6 305.1,297.5 
	305.6,300.3 305.1,301.9 305,304 303.3,307.7 301.9,309.1 301.6,310.6 302.6,312.2 302.8,313.6 302.4,315.3 303,316.7 304.7,316.9 
	306.3,317.4 306.9,318.7 307.4,321.1 306.1,322.5 306,324 304.5,324 303.9,323.8 303.2,324.1 302.5,324.4 256.3,330.6 255.6,330.7 
	254.7,328.7 253.7,327.2 254.8,328.6 255,327.1 253.3,326.5 253.1,327.7 252.7,326.2 252.8,323.2 252.3,320.2 251.3,317.3 
	249.5,314.1 247.4,311.5 241.2,306.5 239.3,305.6 237.8,304.5 235.9,302.4 234.1,302 232.6,302 232.2,303.3 230.4,302.7 
	229.9,301.3 230,299.8 229.6,298.5 227.7,295.8 227.4,295.6 221.4,296 218,294.9 214.1,293 213,290.1 211.3,289.2 209.8,288.1 
	207,286.8 204,287.3 202.4,287 199.1,285.8 197.5,285.8 196,285.6 191.5,286 189.9,284.9 188.5,283.6 187.5,283.5 187.2,281.9 
	187.8,280.2 187.2,278.7 187.7,277.1 187,274.1 187.7,271.7 187.5,270.3 186,269 184.4,268.8 182.9,267.7 182.8,266.1 183.7,264.8 
	183,263.3 179.7,261.2 178.1,258.4 175.9,257.3 175,256.1 174.5,254.6 172.3,252.1 171.3,249.1 169.7,248.3 168.3,245.5 
	165.2,243.1 164.1,241.8 163.9,238.7 163.1,235.6 165.7,233.5 165.9,232 166.7,232.1 166,229 164.4,226.2 161.5,226.6 159.7,225.7 
	156.2,222 155.3,220.7 155,219.3 155.3,218.2 155.4,216.7 154.6,213.8 153.4,212.6 153.8,209.3 153.6,207.9 154,206.5 155.5,206.1 
	155.9,206.6 156.5,208.1 156,209.7 156.2,211.1 157.8,211.8 159,213.1 160.8,214.5 162.3,214.4 160.8,213.1 160.1,210.3 159,207.6 
	158,207.3 157.1,205.9 157.2,204.4 155.9,203.2 156.3,201.4 157.7,201.1 158.9,200.2 160.5,201 160.6,200.6 159,200.1 157.5,198.8 
	155.8,197.9 154.4,198.8 154,200.5 154.7,202 153.8,203.2 154.9,204.6 153.8,205.8 152.1,204.7 150.9,203.4 149.1,202.8 
	148.3,201.4 146.4,200.1 145.1,201.5 145.2,199.8 145.9,198 145.8,196.4 147.5,199.1 146.3,196.3 144.4,193.6 144.2,193.5 
	144,194.2 143.8,192.7 143.2,191.2 142.1,190 140.5,188.9 139.2,187.6 136.6,183.6 134.2,181.1 132.2,178.4 133.1,176.7 
	132.9,174.4 131.2,168.6 131.8,165.5 132.4,163.8 132,162 131.9,160.5 131.2,159.1 131,157.6 128.6,153.5 127.2,152.3 126.9,150.9 
	122.8,147.3 122.8,145.6 122.2,143.3 122.8,140 123.8,138.1 124.3,136.5 125.7,135.4 126.9,134.1 126.3,133.8 126.7,132.1 
	127.3,130.4 127.5,128.8 126.9,127.4 128.9,120.3 " class="blur" filter="url(#blur)"/>
<linearGradient id="SVGID_1_" gradientUnits="userSpaceOnUse" x1="217.0655" y1="101.338" x2="217.0655" y2="325.721" gradientTransform="matrix(1 0 0 -1 0 432)">
	<stop  offset="0" style="stop-color:#888F9B"/>
	<stop  offset="0.2657" style="stop-color:#FFFFFF"/>
	<stop  offset="0.7629" style="stop-color:#F6F7F8"/>
	<stop  offset="1" style="stop-color:#888F9B"/>
</linearGradient>
<polyline class="st5" points="128.9,120.3 128.6,117.4 128.8,117 127.8,114.1 127.6,112.7 126.2,111.2 126.7,109.6 127,106.3 
	127.7,106.3 166.7,107.6 199.4,108 199.4,162.5 199.3,178.6 271,243.1 301.5,270.8 301.5,272.3 301.9,273.9 304.3,276.5 
	305.4,278.4 305.9,279.7 306.8,281.2 307.1,282.9 310.6,285.1 311.9,286.3 311,288 306.7,291.9 306.3,293.4 305.1,294.6 
	305.1,297.5 305.6,300.3 305.1,301.9 305,304 303.3,307.7 301.9,309.1 301.6,310.6 302.6,312.2 302.8,313.6 302.4,315.3 303,316.7 
	304.7,316.9 306.3,317.4 306.9,318.7 307.4,321.1 306.1,322.5 306,324 304.5,324 303.9,323.8 303.2,324.1 302.5,324.4 256.3,330.6 
	255.6,330.7 254.7,328.7 253.7,327.2 254.8,328.6 255,327.1 253.3,326.5 253.1,327.7 252.7,326.2 252.8,323.2 252.3,320.2 
	251.3,317.3 249.5,314.1 247.4,311.5 241.2,306.5 239.3,305.6 237.8,304.5 235.9,302.4 234.1,302 232.6,302 232.2,303.3 
	230.4,302.7 229.9,301.3 230,299.8 229.6,298.5 227.7,295.8 227.4,295.6 221.4,296 218,294.9 214.1,293 213,290.1 211.3,289.2 
	209.8,288.1 207,286.8 204,287.3 202.4,287 199.1,285.8 197.5,285.8 196,285.6 191.5,286 189.9,284.9 188.5,283.6 187.5,283.5 
	187.2,281.9 187.8,280.2 187.2,278.7 187.7,277.1 187,274.1 187.7,271.7 187.5,270.3 186,269 184.4,268.8 182.9,267.7 182.8,266.1 
	183.7,264.8 183,263.3 179.7,261.2 178.1,258.4 175.9,257.3 175,256.1 174.5,254.6 172.3,252.1 171.3,249.1 169.7,248.3 
	168.3,245.5 165.2,243.1 164.1,241.8 163.9,238.7 163.1,235.6 165.7,233.5 165.9,232 166.7,232.1 166,229 164.4,226.2 161.5,226.6 
	159.7,225.7 156.2,222 155.3,220.7 155,219.3 155.3,218.2 155.4,216.7 154.6,213.8 153.4,212.6 153.8,209.3 153.6,207.9 154,206.5 
	155.5,206.1 155.9,206.6 156.5,208.1 156,209.7 156.2,211.1 157.8,211.8 159,213.1 160.8,214.5 162.3,214.4 160.8,213.1 
	160.1,210.3 159,207.6 158,207.3 157.1,205.9 157.2,204.4 155.9,203.2 156.3,201.4 157.7,201.1 158.9,200.2 160.5,201 160.6,200.6 
	159,200.1 157.5,198.8 155.8,197.9 154.4,198.8 154,200.5 154.7,202 153.8,203.2 154.9,204.6 153.8,205.8 152.1,204.7 150.9,203.4 
	149.1,202.8 148.3,201.4 146.4,200.1 145.1,201.5 145.2,199.8 145.9,198 145.8,196.4 147.5,199.1 146.3,196.3 144.4,193.6 
	144.2,193.5 144,194.2 143.8,192.7 143.2,191.2 142.1,190 140.5,188.9 139.2,187.6 136.6,183.6 134.2,181.1 132.2,178.4 
	133.1,176.7 132.9,174.4 131.2,168.6 131.8,165.5 132.4,163.8 132,162 131.9,160.5 131.2,159.1 131,157.6 128.6,153.5 127.2,152.3 
	126.9,150.9 122.8,147.3 122.8,145.6 122.2,143.3 122.8,140 123.8,138.1 124.3,136.5 125.7,135.4 126.9,134.1 126.3,133.8 
	126.7,132.1 127.3,130.4 127.5,128.8 126.9,127.4 128.9,120.3 "/>
<g>
	<path d="M96.7,246.5c-13.9,0-25.1-11.3-25.1-25.2c0-0.1,0-0.2,0-0.3c0-13.9,10.8-25.6,25.1-25.6c9.3,0,15,3.9,19.6,8.7l-4.8,5.1
		c-3.9-4.1-8.2-7.4-14.9-7.4c-9.9,0-17.5,8.4-17.5,19c0,10.7,7.8,19.1,18,19.1c6.2,0,11.1-3.1,14.9-7.3l4.6,4.4
		C111.8,242.5,105.9,246.5,96.7,246.5z"/>
	<path d="M130.5,205.8l-2.2-6c5.5-2.7,11.6-4.1,17.8-4.1c13.3,0,20.8,6.8,20.8,19.7v29.9h-7V238c-4.2,5.5-10.8,8.6-17.7,8.4
		c-9.1,0-18.3-5.1-18.3-15.3c0-10.4,8.5-15.9,20.9-15.9c5.1,0,10.2,0.7,15,2.1v-1.7c0-8.8-5.4-13.3-14.6-13.3
		C140.2,202.3,135.1,203.5,130.5,205.8z M131.4,230.8c0,6.2,5.7,9.8,12.3,9.8c9,0,16.4-5.5,16.4-13.2v-4.7
		c-4.7-1.4-9.5-2.1-14.4-2.1C136.5,220.6,131.4,224.6,131.4,230.8L131.4,230.8z"/>
	<path d="M179.1,245.4v-89.1h7.3v89.1L179.1,245.4z"/>
</g>
<g>
	<path class="st6" d="M213.9,186.9h13.2l21,58.4h-14.7l-3.6-10.3h-19l-3.5,10.3h-14.4L213.9,186.9z M225.9,222.4l-5.5-16.5
		l-5.6,16.5H225.9z"/>
	<path class="st6" d="M252.9,187.3h25.3c6.2,0,10.6,1.8,13.5,5.2c2.2,2.6,3.3,6,3.2,9.4v0.2c0,6.7-3.2,10.7-7.6,12.9
		c6,2.3,9.8,6.3,9.8,14.2v0.2c0,9.9-6.9,16-18.7,16h-25.5V187.3z M274.9,210.4c4.2,0,6.5-1.7,6.5-5v-0.2c0-3.1-2.1-5-6.2-5h-8.9
		v10.2L274.9,210.4z M276.8,232.4c4.2,0,6.6-1.9,6.6-5.3v-0.2c0-3.1-2.1-5.2-6.7-5.2h-10.4v10.7H276.8z"/>
	<path class="st6" d="M320.4,186.9h13.2l21,58.4H340l-3.6-10.3h-19l-3.5,10.3h-14.4L320.4,186.9z M332.4,222.4l-5.5-16.5l-5.6,16.5
		L332.4,222.4z"/>
</g>
</svg>
